<?xml version="1.0" encoding="UTF-8"?>
<!DOCTYPE svg PUBLIC "-//W3C//DTD SVG 1.1//EN" "http://www.w3.org/Graphics/SVG/1.1/DTD/svg11.dtd">
<svg xmlns="http://www.w3.org/2000/svg" version="1.1" width="1920px" height="552px" style="shape-rendering:geometricPrecision; text-rendering:geometricPrecision; image-rendering:optimizeQuality; fill-rule:evenodd; clip-rule:evenodd" xmlns:xlink="http://www.w3.org/1999/xlink">
<g><path style="opacity:1" fill="#061018" d="M -0.5,-0.5 C 639.5,-0.5 1279.5,-0.5 1919.5,-0.5C 1919.5,183.5 1919.5,367.5 1919.5,551.5C 1279.5,551.5 639.5,551.5 -0.5,551.5C -0.5,367.5 -0.5,183.5 -0.5,-0.5 Z"/></g>
<g><path style="opacity:1" fill="#8283d9" d="M 1449.5,23.5 C 1584.17,23.3333 1718.83,23.5 1853.5,24C 1882.28,30.4453 1900.11,47.9453 1907,76.5C 1907.67,210.833 1907.67,345.167 1907,479.5C 1903.37,503.915 1890.2,521.082 1867.5,531C 1861.71,533.281 1855.71,534.614 1849.5,535C 1717.5,535.667 1585.5,535.667 1453.5,535C 1423.36,530.862 1404.53,514.029 1397,484.5C 1396.33,347.5 1396.33,210.5 1397,73.5C 1404.64,46.3586 1422.14,29.6919 1449.5,23.5 Z"/></g>
<g><path style="opacity:1" fill="#fefefe" d="M 1742.5,360.5 C 1742.26,361.791 1742.6,362.791 1743.5,363.5C 1743.37,364.376 1743.7,365.043 1744.5,365.5C 1745.5,281.836 1745.83,198.169 1745.5,114.5C 1767.83,114.5 1790.17,114.5 1812.5,114.5C 1812.5,214.167 1812.5,313.833 1812.5,413.5C 1771.43,413.827 1730.43,413.494 1689.5,412.5C 1682.93,392.855 1675.93,373.355 1668.5,354C 1630.5,353.333 1592.5,353.333 1554.5,354C 1547.25,373.923 1539.92,393.757 1532.5,413.5C 1507.99,413.831 1483.66,413.498 1459.5,412.5C 1499.11,313.341 1539.11,214.341 1579.5,115.5C 1600.83,114.167 1622.17,114.167 1643.5,115.5C 1676.31,197.416 1709.31,279.082 1742.5,360.5 Z"/></g>
<g><path style="opacity:1" fill="#9fa0e3" d="M 1744.5,114.5 C 1744.83,197.668 1744.5,280.668 1743.5,363.5C 1742.6,362.791 1742.26,361.791 1742.5,360.5C 1743.17,278.5 1743.83,196.5 1744.5,114.5 Z"/></g>
<g><path style="opacity:1" fill="#dbdcf4" d="M 1744.5,114.5 C 1744.83,114.5 1745.17,114.5 1745.5,114.5C 1745.83,198.169 1745.5,281.836 1744.5,365.5C 1743.7,365.043 1743.37,364.376 1743.5,363.5C 1744.5,280.668 1744.83,197.668 1744.5,114.5 Z"/></g>
<g><path style="opacity:1" fill="#fefefe" d="M 225.5,429.5 C 200.339,430.498 175.005,430.831 149.5,430.5C 123.167,396.5 96.8333,362.5 70.5,328.5C 70.2172,327.711 69.7172,327.044 69,326.5C 68.5,361.165 68.3333,395.832 68.5,430.5C 48.5,430.5 28.5,430.5 8.5,430.5C 8.5,342.167 8.5,253.833 8.5,165.5C 46.5277,165.051 84.5277,165.551 122.5,167C 169.521,176.222 191.688,204.722 189,252.5C 185.617,286.715 167.783,309.715 135.5,321.5C 165.508,357.531 195.508,393.531 225.5,429.5 Z"/></g>
<g><path style="opacity:1" fill="#8384da" d="M 1644.5,292.5 C 1633.67,293.167 1622.67,293.5 1611.5,293.5C 1600.15,293.499 1589.15,292.832 1578.5,291.5C 1589.05,263.394 1599.89,235.394 1611,207.5C 1623.2,235.267 1634.37,263.6 1644.5,292.5 Z"/></g>
<g><path style="opacity:1" fill="#41494f" d="M 81.5,214.5 C 77.5,214.5 73.5,214.5 69.5,214.5C 69.5,237.167 69.5,259.833 69.5,282.5C 76.5,282.5 83.5,282.5 90.5,282.5C 83.3524,283.492 76.0191,283.825 68.5,283.5C 68.5,260.167 68.5,236.833 68.5,213.5C 73.0323,213.182 77.3656,213.515 81.5,214.5 Z"/></g>
<g><path style="opacity:1" fill="#061018" d="M 81.5,214.5 C 118.491,213.65 131.991,230.983 122,266.5C 117.637,274.109 111.137,278.942 102.5,281C 98.534,281.828 94.534,282.328 90.5,282.5C 83.5,282.5 76.5,282.5 69.5,282.5C 69.5,259.833 69.5,237.167 69.5,214.5C 73.5,214.5 77.5,214.5 81.5,214.5 Z"/></g>
<g><path style="opacity:1" fill="#fdfdfd" d="M 276.5,261.5 C 297.127,259.061 316.793,262.227 335.5,271C 360.448,284.383 374.282,305.216 377,333.5C 377.5,341.159 377.666,348.826 377.5,356.5C 337.833,356.5 298.167,356.5 258.5,356.5C 259.202,374.715 268.535,385.881 286.5,390C 296.828,391.096 306.828,389.763 316.5,386C 322.95,382.044 328.95,377.544 334.5,372.5C 348.294,378.563 361.627,385.396 374.5,393C 361.749,413.734 343.415,426.734 319.5,432C 278.124,442.345 243.624,431.511 216,399.5C 198.187,373.796 194.52,346.129 205,316.5C 219.486,285.829 243.319,267.496 276.5,261.5 Z"/></g>
<g><path style="opacity:1" fill="#fdfdfd" d="M 503.5,273.5 C 503.5,274.167 503.5,274.833 503.5,275.5C 497.847,286.807 492.18,298.14 486.5,309.5C 485.833,309.833 485.167,310.167 484.5,310.5C 468.996,302.371 452.663,299.871 435.5,303C 429.96,308.687 430.294,314.02 436.5,319C 448.265,323.943 460.265,328.276 472.5,332C 486.56,337.565 496.894,347.065 503.5,360.5C 503.709,361.922 504.209,363.255 505,364.5C 505.5,331.835 505.667,299.168 505.5,266.5C 524.167,266.5 542.833,266.5 561.5,266.5C 561.169,295.005 561.502,323.338 562.5,351.5C 562.129,380.3 576.129,392.466 604.5,388C 615.411,385.421 621.911,378.587 624,367.5C 624.853,363.531 625.519,359.531 626,355.5C 626.5,325.502 626.667,295.502 626.5,265.5C 645.5,265.5 664.5,265.5 683.5,265.5C 683.667,299.835 683.5,334.168 683,368.5C 681.437,403.496 663.604,424.662 629.5,432C 604.08,436.974 578.746,436.64 553.5,431C 537.703,427.179 525.203,418.679 516,405.5C 512.587,399.348 509.754,393.014 507.5,386.5C 502.135,413.361 485.801,428.861 458.5,433C 429.793,439.137 402.46,435.47 376.5,422C 372.65,419.239 368.983,416.239 365.5,413C 372.957,399.917 380.79,387.083 389,374.5C 399.056,382.613 410.223,388.779 422.5,393C 429.797,394.034 436.797,393.034 443.5,390C 444.701,389.097 445.535,387.931 446,386.5C 447.534,381.16 446.367,376.66 442.5,373C 429.597,367.882 416.93,362.216 404.5,356C 380.22,342.58 372.054,322.414 380,295.5C 385.893,282.607 395.393,273.441 408.5,268C 415.605,265.187 422.939,263.187 430.5,262C 455.935,259.21 480.268,263.043 503.5,273.5 Z"/></g>
<g><path style="opacity:1" fill="#fdfdfd" d="M 1135.5,356.5 C 1099.67,355.502 1063.67,355.168 1027.5,355.5C 1027.22,357.415 1027.55,359.081 1028.5,360.5C 1029.06,371.469 1034.06,379.636 1043.5,385C 1066.9,394.907 1087.06,390.407 1104,371.5C 1117.74,378.285 1131.24,385.451 1144.5,393C 1128.99,416.8 1106.99,430.466 1078.5,434C 1030.43,440.806 995.768,422.639 974.5,379.5C 974.108,377.821 973.608,376.154 973,374.5C 972.5,393.164 972.333,411.83 972.5,430.5C 953.5,430.5 934.5,430.5 915.5,430.5C 915.966,395.459 915.466,360.459 914,325.5C 907.01,309.424 894.843,303.591 877.5,308C 869.142,311.688 863.642,317.854 861,326.5C 860.5,361.165 860.333,395.832 860.5,430.5C 841.5,430.5 822.5,430.5 803.5,430.5C 803.667,396.832 803.5,363.165 803,329.5C 797.456,310.684 784.956,303.517 765.5,308C 756.763,311.739 751.263,318.239 749,327.5C 748.5,361.832 748.333,396.165 748.5,430.5C 729.5,430.5 710.5,430.5 691.5,430.5C 691.5,375.5 691.5,320.5 691.5,265.5C 710.5,265.5 729.5,265.5 748.5,265.5C 748.334,271.509 748.501,277.509 749,283.5C 767.105,263.869 789.271,257.036 815.5,263C 831.977,267.155 844.81,276.321 854,290.5C 880.429,258.687 911.929,252.52 948.5,272C 965.237,283.64 973.404,299.806 973,320.5C 995.501,272.332 1033,253.499 1085.5,264C 1112.5,270.823 1131.5,286.99 1142.5,312.5C 1167.55,269.656 1204.55,253.489 1253.5,264C 1297.01,278.81 1317.18,309.31 1314,355.5C 1274.24,356.497 1234.41,356.83 1194.5,356.5C 1195.2,374.715 1204.54,385.881 1222.5,390C 1232.83,391.096 1242.83,389.763 1252.5,386C 1258.95,382.044 1264.95,377.544 1270.5,372.5C 1284.29,378.563 1297.63,385.396 1310.5,393C 1298.01,414.093 1279.67,427.093 1255.5,432C 1212.43,442.879 1177.26,431.046 1150,396.5C 1141.9,384.384 1137.07,371.051 1135.5,356.5 Z"/></g>
<g><path style="opacity:1" fill="#7d8286" d="M 562.5,351.5 C 561.502,323.338 561.169,295.005 561.5,266.5C 542.833,266.5 524.167,266.5 505.5,266.5C 505.667,299.168 505.5,331.835 505,364.5C 504.209,363.255 503.709,361.922 503.5,360.5C 504.833,332.167 504.833,303.833 503.5,275.5C 503.5,274.833 503.5,274.167 503.5,273.5C 504.473,271.052 504.806,268.385 504.5,265.5C 523.833,265.5 543.167,265.5 562.5,265.5C 562.5,294.167 562.5,322.833 562.5,351.5 Z"/></g>
<g><path style="opacity:1" fill="#091219" d="M 503.5,275.5 C 504.833,303.833 504.833,332.167 503.5,360.5C 496.894,347.065 486.56,337.565 472.5,332C 460.265,328.276 448.265,323.943 436.5,319C 430.294,314.02 429.96,308.687 435.5,303C 452.663,299.871 468.996,302.371 484.5,310.5C 485.167,310.167 485.833,309.833 486.5,309.5C 492.18,298.14 497.847,286.807 503.5,275.5 Z"/></g>
<g><path style="opacity:1" fill="#d0d0f1" d="M 1578.5,291.5 C 1589.15,292.832 1600.15,293.499 1611.5,293.5C 1622.67,293.5 1633.67,293.167 1644.5,292.5C 1645.04,292.56 1645.38,292.893 1645.5,293.5C 1622.84,294.5 1600.18,294.833 1577.5,294.5C 1577.26,293.209 1577.6,292.209 1578.5,291.5 Z"/></g>
<g><path style="opacity:1" fill="#081119" d="M 322.5,324.5 C 301.833,324.5 281.167,324.5 260.5,324.5C 260.5,323.167 260.5,321.833 260.5,320.5C 263.392,308.775 270.725,301.608 282.5,299C 304.009,295.23 317.343,303.73 322.5,324.5 Z"/></g>
<g><path style="opacity:1" fill="#071118" d="M 1091.5,323.5 C 1071.01,324.497 1050.34,324.831 1029.5,324.5C 1032.5,307.167 1042.84,298.5 1060.5,298.5C 1077.71,298.382 1088.04,306.715 1091.5,323.5 Z"/></g>
<g><path style="opacity:1" fill="#081119" d="M 1258.5,324.5 C 1237.83,324.5 1217.17,324.5 1196.5,324.5C 1196.5,323.167 1196.5,321.833 1196.5,320.5C 1199.39,308.775 1206.72,301.608 1218.5,299C 1231.43,296.377 1242.6,299.544 1252,308.5C 1255.44,313.335 1257.61,318.668 1258.5,324.5 Z"/></g>
<g><path style="opacity:1" fill="#bdc1c3" d="M 260.5,320.5 C 260.5,321.833 260.5,323.167 260.5,324.5C 281.167,324.5 301.833,324.5 322.5,324.5C 301.673,325.497 280.673,325.831 259.5,325.5C 259.216,323.585 259.549,321.919 260.5,320.5 Z"/></g>
<g><path style="opacity:1" fill="#c1c4c6" d="M 1091.5,323.5 C 1092.04,323.56 1092.38,323.893 1092.5,324.5C 1071.34,325.828 1050.34,325.828 1029.5,324.5C 1050.34,324.831 1071.01,324.497 1091.5,323.5 Z"/></g>
<g><path style="opacity:1" fill="#bec1c3" d="M 1196.5,320.5 C 1196.5,321.833 1196.5,323.167 1196.5,324.5C 1217.17,324.5 1237.83,324.5 1258.5,324.5C 1237.67,325.497 1216.67,325.831 1195.5,325.5C 1195.22,323.585 1195.55,321.919 1196.5,320.5 Z"/></g>
<g><path style="opacity:1" fill="#3c444a" d="M 70.5,328.5 C 69.8333,362.5 69.1667,396.5 68.5,430.5C 68.3333,395.832 68.5,361.165 69,326.5C 69.7172,327.044 70.2172,327.711 70.5,328.5 Z"/></g>
<g><path style="opacity:1" fill="#bfc2c4" d="M 1135.5,356.5 C 1099.83,356.5 1064.17,356.5 1028.5,356.5C 1028.5,357.833 1028.5,359.167 1028.5,360.5C 1027.55,359.081 1027.22,357.415 1027.5,355.5C 1063.67,355.168 1099.67,355.502 1135.5,356.5 Z"/></g>
<g><path style="opacity:1" fill="#fdfdfd" d="M 1341.5,362.5 C 1372.55,361.05 1387.38,375.717 1386,406.5C 1379.45,427.873 1364.95,437.373 1342.5,435C 1320.85,428.005 1311.35,413.172 1314,390.5C 1318.05,376 1327.22,366.666 1341.5,362.5 Z"/></g>
<g><path style="opacity:1" fill="#293239" d="M 974.5,379.5 C 973.833,396.5 973.167,413.5 972.5,430.5C 972.333,411.83 972.5,393.164 973,374.5C 973.608,376.154 974.108,377.821 974.5,379.5 Z"/></g>
<g><path style="opacity:1" fill="#9a9be1" d="M 1459.5,412.5 C 1483.66,413.498 1507.99,413.831 1532.5,413.5C 1508,414.829 1483.33,414.829 1458.5,413.5C 1458.62,412.893 1458.96,412.56 1459.5,412.5 Z"/></g>
<g><path style="opacity:1" fill="#9a9be1" d="M 1689.5,412.5 C 1730.43,413.494 1771.43,413.827 1812.5,413.5C 1792.17,414.167 1771.67,414.5 1751,414.5C 1730.16,414.5 1709.66,413.833 1689.5,412.5 Z"/></g>
<g><path style="opacity:1" fill="#434b51" d="M 225.5,429.5 C 226.043,429.56 226.376,429.893 226.5,430.5C 200.67,431.829 175.003,431.829 149.5,430.5C 175.005,430.831 200.339,430.498 225.5,429.5 Z"/></g>
</svg>
